<?xml version="1.0" standalone="no"?>
<!DOCTYPE svg PUBLIC "-//W3C//DTD SVG 20010904//EN"
 "http://www.w3.org/TR/2001/REC-SVG-20010904/DTD/svg10.dtd">
<svg version="1.0" xmlns="http://www.w3.org/2000/svg"
 width="16.000000pt" height="16.000000pt" viewBox="0 0 16.000000 16.000000"
 preserveAspectRatio="xMidYMid meet">
<metadata>
Created by potrace 1.11, written by Peter Selinger 2001-2013
</metadata>
<g transform="translate(0.000000,16.000000) scale(0.016667,-0.016667)"
fill="#000000" stroke="none">
<path d="M428 883 c-29 -18 -48 -52 -48 -84 0 -29 30 -78 52 -85 14 -4 18 -16
18 -50 0 -44 0 -44 -35 -44 -19 0 -44 6 -55 12 -26 17 -55 0 -55 -32 0 -33 27
-47 58 -31 13 7 37 11 53 9 32 -3 32 -2 18 -177 -12 -153 -78 -187 -175 -90
-51 51 -81 158 -33 119 14 -12 15 -10 9 26 -4 21 -14 54 -21 72 l-14 34 -23
-29 c-14 -15 -32 -43 -41 -61 -16 -32 -16 -33 1 -30 14 2 18 -4 19 -27 1 -60
27 -126 64 -165 20 -21 72 -56 116 -78 44 -22 94 -54 112 -70 l32 -30 34 32
c19 17 74 51 121 75 68 34 95 55 121 90 32 45 49 99 47 152 -1 22 2 26 19 21
20 -5 20 -5 -1 34 -46 86 -65 94 -81 32 -6 -24 -14 -51 -17 -61 -4 -16 -1 -18
17 -12 21 7 22 5 15 -27 -24 -111 -146 -185 -197 -117 -19 26 -34 107 -41 227
l-3 62 33 0 c18 0 42 -6 53 -12 37 -23 77 24 50 57 -14 17 -60 20 -60 5 0 -5
-18 -10 -40 -10 -38 0 -40 2 -40 29 0 16 -3 37 -7 47 -3 10 -2 15 3 12 20 -13
74 51 74 89 0 35 -19 68 -50 86 -35 21 -67 21 -102 0z m92 -43 c22 -22 25 -42
10 -71 -14 -25 -28 -24 -32 4 -5 33 -32 27 -38 -8 l-5 -30 -18 25 c-9 13 -17
32 -17 42 0 24 35 58 60 58 11 0 29 -9 40 -20z"/>
</g>
</svg>
