<?xml version="1.0" encoding="utf-8"?>
<!-- Generator: Adobe Illustrator 16.0.0, SVG Export Plug-In . SVG Version: 6.00 Build 0)  -->
<!DOCTYPE svg PUBLIC "-//W3C//DTD SVG 1.0//EN" "http://www.w3.org/TR/2001/REC-SVG-20010904/DTD/svg10.dtd">
<svg version="1.0" id="Capa_1" xmlns="http://www.w3.org/2000/svg" xmlns:xlink="http://www.w3.org/1999/xlink" x="0px" y="0px"
	 width="11px" height="11px" viewBox="0 0 11 11" enable-background="new 0 0 11 11" xml:space="preserve">
<path fill="#364A5E" d="M8.563,5.162c1.195-0.441,1.869-1.271,1.869-2.326c0-0.941-0.451-1.701-1.311-2.197
	C8.41,0.227,7.42,0,6.328,0H0.021v1.852H1.13v7.297H0.021V11h5.928c0.965,0,2.344-0.123,3.434-0.705
	c1.057-0.566,1.596-1.424,1.596-2.553C10.979,6.445,10.066,5.486,8.563,5.162z M5.636,4.355H3.737V1.852h1.702
	c1.69,0,2.379,0.346,2.379,1.191C7.818,4.129,6.635,4.355,5.636,4.355z M3.737,6.262h2.01c1.86,0,2.616,0.406,2.616,1.398
	c0,0.988-0.91,1.488-2.706,1.488H3.737V6.262z"/>
</svg>
