<?xml version="1.0" encoding="utf-8"?>
<!-- Generator: Adobe Illustrator 16.0.0, SVG Export Plug-In . SVG Version: 6.00 Build 0)  -->
<!DOCTYPE svg PUBLIC "-//W3C//DTD SVG 1.0//EN" "http://www.w3.org/TR/2001/REC-SVG-20010904/DTD/svg10.dtd">
<svg version="1.0" id="Capa_1" xmlns="http://www.w3.org/2000/svg" xmlns:xlink="http://www.w3.org/1999/xlink" x="0px" y="0px"
	 width="11px" height="11px" viewBox="0 0 11 11" enable-background="new 0 0 11 11" xml:space="preserve">
<g id="XMLID_516_">
	<path id="XMLID_517_" fill="#364A5E" d="M0.5,1.222h10C10.775,1.222,11,0.948,11,0.611C11,0.274,10.775,0,10.501,0h-10
		C0.224,0,0,0.274,0,0.611C0,0.948,0.224,1.222,0.5,1.222z"/>
	<path id="XMLID_518_" fill="#364A5E" d="M1.833,2.445c-0.276,0-0.5,0.273-0.5,0.611s0.224,0.611,0.5,0.611h7.333
		c0.276,0,0.499-0.273,0.499-0.611S9.443,2.445,9.167,2.445H1.833z"/>
	<path id="XMLID_519_" fill="#364A5E" d="M10.501,4.889h-10C0.224,4.889,0,5.163,0,5.5c0,0.337,0.224,0.61,0.5,0.61h10
		C10.775,6.11,11,5.837,11,5.5C11,5.163,10.775,4.889,10.501,4.889z"/>
	<path id="XMLID_520_" fill="#364A5E" d="M10.501,9.778h-10c-0.277,0-0.5,0.272-0.5,0.612C0,10.727,0.224,11,0.5,11h10
		C10.775,11,11,10.727,11,10.391C11,10.051,10.775,9.778,10.501,9.778z"/>
	<path id="XMLID_521_" fill="#364A5E" d="M9.167,8.556c0.276,0,0.499-0.274,0.499-0.612c0-0.336-0.223-0.609-0.499-0.609H1.833
		c-0.276,0-0.5,0.273-0.5,0.609c0,0.338,0.224,0.612,0.5,0.612H9.167z"/>
</g>
</svg>
