<?xml version="1.0" encoding="utf-8"?>
<!-- Generator: Adobe Illustrator 16.0.0, SVG Export Plug-In . SVG Version: 6.00 Build 0)  -->
<!DOCTYPE svg PUBLIC "-//W3C//DTD SVG 1.0//EN" "http://www.w3.org/TR/2001/REC-SVG-20010904/DTD/svg10.dtd">
<svg version="1.0" id="Capa_1" xmlns="http://www.w3.org/2000/svg" xmlns:xlink="http://www.w3.org/1999/xlink" x="0px" y="0px"
	 width="11px" height="11px" viewBox="0 0 11 11" enable-background="new 0 0 11 11" xml:space="preserve">
<g>
	<path fill="#364A5E" d="M0,1.812v6.02c0,0.594,0.504,1.095,1.1,1.095h1.466v1.824c0,0.076,0.047,0.144,0.118,0.171
		c0.021,0.008,0.044,0.012,0.066,0.012c0.05,0,0.1-0.021,0.135-0.06l1.779-1.947h5.235C10.496,8.927,11,8.426,11,7.832v-6.02
		c0-0.593-0.504-1.094-1.101-1.094H1.1C0.504,0.718,0,1.219,0,1.812z M7.334,4.731c0-0.402,0.328-0.73,0.733-0.73
		c0.403,0,0.732,0.328,0.732,0.73c0,0.403-0.329,0.73-0.732,0.73C7.662,5.461,7.334,5.134,7.334,4.731z M4.767,4.731
		c0-0.402,0.329-0.73,0.733-0.73c0.405,0,0.733,0.328,0.733,0.73c0,0.403-0.329,0.73-0.733,0.73
		C5.096,5.461,4.767,5.134,4.767,4.731z M2.2,4.731c0-0.402,0.329-0.73,0.734-0.73c0.404,0,0.733,0.328,0.733,0.73
		c0,0.403-0.33,0.73-0.733,0.73C2.529,5.461,2.2,5.134,2.2,4.731z"/>
</g>
</svg>
