<?xml version="1.0" encoding="utf-8"?>
<!-- Generator: Adobe Illustrator 16.0.0, SVG Export Plug-In . SVG Version: 6.00 Build 0)  -->
<!DOCTYPE svg PUBLIC "-//W3C//DTD SVG 1.0//EN" "http://www.w3.org/TR/2001/REC-SVG-20010904/DTD/svg10.dtd">
<svg version="1.0" id="Capa_1" xmlns="http://www.w3.org/2000/svg" xmlns:xlink="http://www.w3.org/1999/xlink" x="0px" y="0px"
	 width="11px" height="11px" viewBox="0 0 11 11" enable-background="new 0 0 11 11" xml:space="preserve">
<g id="XMLID_522_">
	<path id="XMLID_523_" fill="#364A5E" d="M10.5,9.777h-10c-0.276,0-0.5,0.274-0.5,0.611C0,10.727,0.224,11,0.5,11h10
		c0.276,0,0.5-0.273,0.5-0.611C11,10.052,10.776,9.777,10.5,9.777z"/>
	<path id="XMLID_524_" fill="#364A5E" d="M10.5,7.333H3.167c-0.277,0-0.5,0.273-0.5,0.611s0.224,0.611,0.5,0.611H10.5
		c0.276,0,0.5-0.273,0.5-0.611S10.776,7.333,10.5,7.333z"/>
	<path id="XMLID_525_" fill="#364A5E" d="M10.5,4.889h-10C0.224,4.889,0,5.162,0,5.5c0,0.337,0.224,0.611,0.5,0.611h10
		c0.276,0,0.5-0.273,0.5-0.611C11,5.162,10.776,4.889,10.5,4.889z"/>
	<path id="XMLID_526_" fill="#364A5E" d="M0.5,1.222h10c0.276,0,0.5-0.273,0.5-0.611C11,0.273,10.776,0,10.5,0h-10
		C0.224,0,0,0.273,0,0.611C0,0.949,0.224,1.222,0.5,1.222z"/>
	<path id="XMLID_527_" fill="#364A5E" d="M10.5,2.444H3.167c-0.277,0-0.5,0.274-0.5,0.611s0.224,0.611,0.5,0.611H10.5
		c0.276,0,0.5-0.273,0.5-0.611S10.776,2.444,10.5,2.444z"/>
</g>
</svg>
