<?xml version="1.0" encoding="utf-8"?>
<!-- Generator: Adobe Illustrator 16.0.0, SVG Export Plug-In . SVG Version: 6.00 Build 0)  -->
<!DOCTYPE svg PUBLIC "-//W3C//DTD SVG 1.0//EN" "http://www.w3.org/TR/2001/REC-SVG-20010904/DTD/svg10.dtd">
<svg version="1.0" id="Capa_1" xmlns="http://www.w3.org/2000/svg" xmlns:xlink="http://www.w3.org/1999/xlink" x="0px" y="0px"
	 width="11px" height="11px" viewBox="0 0 11 11" enable-background="new 0 0 11 11" xml:space="preserve">
<g>
	<g>
		<path fill="#364A5E" d="M18.682-0.473c-0.002-0.148-0.053-0.296-0.163-0.413l-6.711-7.147c-0.001-0.001-0.004-0.001-0.006-0.004
			c-0.04-0.042-0.085-0.076-0.135-0.107c-0.014-0.009-0.029-0.016-0.045-0.024c-0.042-0.022-0.088-0.04-0.135-0.053
			c-0.014-0.003-0.023-0.007-0.036-0.011c-0.052-0.011-0.103-0.018-0.156-0.018H-5.197c-0.752,0-1.366,0.572-1.366,1.272v29.912
			c0,0.7,0.613,1.272,1.366,1.272h22.52c0.752,0,1.364-0.572,1.364-1.272V-0.401C18.688-0.425,18.684-0.448,18.682-0.473z
			 M-2.44,22.196c-0.883,0-1.753-0.213-2.19-0.438l0.355-1.347c0.471,0.226,1.192,0.45,1.937,0.45c0.803,0,1.228-0.311,1.228-0.781
			c0-0.447-0.368-0.703-1.296-1.016c-1.284-0.416-2.12-1.078-2.12-2.125c0-1.229,1.101-2.17,2.922-2.17
			c0.871,0,1.513,0.171,1.971,0.362l-0.39,1.314c-0.31-0.138-0.86-0.34-1.617-0.34c-0.755,0-1.122,0.321-1.122,0.693
			c0,0.46,0.436,0.663,1.433,1.016c1.363,0.471,2.005,1.133,2.005,2.148C0.676,21.17-0.321,22.196-2.44,22.196z M9.134,22.091H7.241
			L6.589,18.99c-0.149-0.726-0.273-1.399-0.366-2.223H6.2c-0.137,0.813-0.263,1.496-0.447,2.223L5.02,22.091H3.106l-1.833-7.205
			h1.868l0.584,2.973c0.172,0.854,0.331,1.785,0.458,2.512h0.023c0.126-0.78,0.309-1.646,0.504-2.534l0.652-2.95h1.857l0.618,3.037
			c0.172,0.843,0.299,1.614,0.413,2.414h0.022c0.114-0.8,0.286-1.646,0.446-2.501l0.631-2.95h1.776L9.134,22.091z M16.755,16.223
			h-2.967v1.646h2.772v1.326h-2.772v2.896h-1.755v-7.205h4.722V16.223L16.755,16.223z M-5.197,13.36V-6.978h15.809v6.513
			c0,0.353,0.306,0.636,0.683,0.636h6.028V13.36H-5.197L-5.197,13.36z"/>
		<path fill="#364A5E" d="M7.106,1.073c-1.652,1.156-2.699,4.291-3.58,6.013c-0.883,1.72-2.508,1.516-2.508,1.516v2.027
			c0,0,1.02,0.026,1.873-0.308c0.855-0.332,1.846-1.077,2.427-2c0.224-0.363,0.569-1.104,0.945-1.929h2.607V4.311H7.218
			c0.254-0.529,0.483-0.976,0.659-1.232c0.634-0.924,2.205-0.9,2.205-0.9V0.2C10.082,0.2,8.76-0.083,7.106,1.073z"/>
	</g>
</g>
</svg>
