<?xml version="1.0" encoding="utf-8"?>
<!-- Generator: Adobe Illustrator 16.0.0, SVG Export Plug-In . SVG Version: 6.00 Build 0)  -->
<!DOCTYPE svg PUBLIC "-//W3C//DTD SVG 1.0//EN" "http://www.w3.org/TR/2001/REC-SVG-20010904/DTD/svg10.dtd">
<svg version="1.0" id="Capa_1" xmlns="http://www.w3.org/2000/svg" xmlns:xlink="http://www.w3.org/1999/xlink" x="0px" y="0px"
	 width="11px" height="11px" viewBox="0 0 11 11" enable-background="new 0 0 11 11" xml:space="preserve">
<g>
	<polygon fill="#364A5E" points="5.219,1.833 6.729,1.833 6.729,3.559 8.438,3.559 8.438,0 0.042,0 0.042,3.559 1.751,3.559 
		1.751,1.833 3.26,1.833 3.26,9.167 2.454,9.167 2.454,11 6.072,11 6.072,9.167 5.219,9.167 	"/>
	<polygon fill="#364A5E" points="5.972,4.476 5.972,6.739 7.179,6.739 7.179,5.77 7.834,5.77 7.834,9.705 7.332,9.705 7.332,11 
		9.644,11 9.644,9.705 9.19,9.705 9.19,5.77 9.794,5.77 9.794,6.739 11,6.739 11,4.476 	"/>
</g>
</svg>
