<?xml version="1.0" encoding="utf-8"?>
<!-- Generator: Adobe Illustrator 16.0.0, SVG Export Plug-In . SVG Version: 6.00 Build 0)  -->
<!DOCTYPE svg PUBLIC "-//W3C//DTD SVG 1.0//EN" "http://www.w3.org/TR/2001/REC-SVG-20010904/DTD/svg10.dtd">
<svg version="1.0" id="Capa_1" xmlns="http://www.w3.org/2000/svg" xmlns:xlink="http://www.w3.org/1999/xlink" x="0px" y="0px"
	 width="11px" height="11px" viewBox="0 0 11 11" enable-background="new 0 0 11 11" xml:space="preserve">
<g>
	<g>
		<path fill="#364A5E" d="M10.73,1.163c-0.18-0.195-0.396-0.293-0.647-0.293H0.917c-0.252,0-0.468,0.097-0.647,0.293
			C0.09,1.357,0,1.592,0,1.866V9.44c0,0.274,0.09,0.509,0.27,0.705c0.179,0.194,0.395,0.292,0.647,0.292h9.167
			c0.252,0,0.469-0.098,0.647-0.292C10.91,9.949,11,9.715,11,9.44V1.866C11,1.592,10.91,1.357,10.73,1.163z M10.267,9.44
			c0,0.055-0.018,0.101-0.055,0.142C10.176,9.62,10.133,9.64,10.083,9.64H0.917c-0.049,0-0.092-0.02-0.129-0.058
			C0.751,9.541,0.733,9.495,0.733,9.44V1.866c0-0.054,0.018-0.101,0.054-0.14c0.037-0.039,0.08-0.059,0.129-0.059h9.167
			c0.05,0,0.093,0.02,0.129,0.059c0.037,0.039,0.055,0.086,0.055,0.14V9.44L10.267,9.44z"/>
		<path fill="#364A5E" d="M2.567,4.856c0.305,0,0.565-0.116,0.779-0.349C3.56,4.275,3.667,3.993,3.667,3.661
			c0-0.333-0.107-0.615-0.321-0.848C3.132,2.581,2.872,2.464,2.567,2.464c-0.306,0-0.565,0.116-0.779,0.349
			C1.574,3.046,1.467,3.328,1.467,3.661c0,0.332,0.107,0.614,0.321,0.847C2.001,4.74,2.261,4.856,2.567,4.856z"/>
		<polygon fill="#364A5E" points="4.217,6.65 3.3,5.653 1.467,7.647 1.467,8.843 9.533,8.843 9.533,6.053 7.149,3.461 		"/>
	</g>
</g>
</svg>
