<?xml version="1.0" encoding="utf-8"?>
<!-- Generator: Adobe Illustrator 16.0.0, SVG Export Plug-In . SVG Version: 6.00 Build 0)  -->
<!DOCTYPE svg PUBLIC "-//W3C//DTD SVG 1.0//EN" "http://www.w3.org/TR/2001/REC-SVG-20010904/DTD/svg10.dtd">
<svg version="1.0" id="Capa_1" xmlns="http://www.w3.org/2000/svg" xmlns:xlink="http://www.w3.org/1999/xlink" x="0px" y="0px"
	 width="11px" height="11px" viewBox="0 0 11 11" enable-background="new 0 0 11 11" xml:space="preserve">
<g id="XMLID_530_">
	<path id="XMLID_531_" fill="#364A5E" d="M0.487,1.235H10.5c0.276,0,0.5-0.277,0.5-0.618C11,0.276,10.776,0,10.5,0H0.487
		c-0.276,0-0.5,0.276-0.5,0.618C-0.014,0.958,0.21,1.235,0.487,1.235z"/>
	<path id="XMLID_532_" fill="#364A5E" d="M0.487,3.706h7.342c0.276,0,0.501-0.276,0.501-0.618c0-0.341-0.225-0.617-0.501-0.617
		H0.487c-0.276,0-0.5,0.276-0.5,0.617C-0.014,3.429,0.21,3.706,0.487,3.706z"/>
	<path id="XMLID_533_" fill="#364A5E" d="M10.5,4.941H0.487c-0.276,0-0.5,0.276-0.5,0.617c0,0.341,0.224,0.617,0.5,0.617H10.5
		c0.276,0,0.5-0.276,0.5-0.617C11,5.218,10.776,4.941,10.5,4.941z"/>
	<path id="XMLID_534_" fill="#364A5E" d="M10.5,9.882H0.487c-0.276,0-0.5,0.277-0.5,0.618s0.224,0.617,0.5,0.617H10.5
		c0.276,0,0.5-0.276,0.5-0.617S10.776,9.882,10.5,9.882z"/>
	<path id="XMLID_535_" fill="#364A5E" d="M0.487,8.646h7.342c0.276,0,0.501-0.276,0.501-0.617c0-0.342-0.225-0.618-0.501-0.618
		H0.487c-0.276,0-0.5,0.276-0.5,0.618C-0.014,8.37,0.21,8.646,0.487,8.646z"/>
</g>
</svg>
