<?xml version="1.0" encoding="utf-8"?>
<!-- Generator: Adobe Illustrator 16.0.0, SVG Export Plug-In . SVG Version: 6.00 Build 0)  -->
<!DOCTYPE svg PUBLIC "-//W3C//DTD SVG 1.0//EN" "http://www.w3.org/TR/2001/REC-SVG-20010904/DTD/svg10.dtd">
<svg version="1.0" id="Capa_1" xmlns="http://www.w3.org/2000/svg" xmlns:xlink="http://www.w3.org/1999/xlink" x="0px" y="0px"
	 width="11px" height="11px" viewBox="0 0 11 11" enable-background="new 0 0 11 11" xml:space="preserve">
<g>
	<path fill="#364A5E" d="M10.148,4.973L8.091,6.998c-1.134,1.119-2.977,1.119-4.112,0C3.8,6.822,3.66,6.624,3.537,6.421l0.957-0.942
		c0.045-0.045,0.101-0.071,0.155-0.101C4.714,5.6,4.83,5.81,5.007,5.985c0.567,0.558,1.489,0.558,2.057,0L9.119,3.96
		c0.568-0.559,0.568-1.467,0-2.025c-0.566-0.559-1.488-0.559-2.056,0L6.332,2.656c-0.593-0.229-1.233-0.29-1.854-0.2l1.558-1.534
		c1.136-1.119,2.978-1.119,4.113,0C11.283,2.041,11.283,3.854,10.148,4.973z M4.71,8.302L3.979,9.023
		c-0.566,0.559-1.489,0.559-2.056,0c-0.566-0.559-0.566-1.468,0-2.025l2.056-2.025c0.568-0.559,1.49-0.559,2.056,0
		c0.178,0.174,0.293,0.384,0.36,0.606c0.053-0.031,0.108-0.056,0.153-0.101l0.956-0.941C7.383,4.333,7.242,4.136,7.063,3.96
		c-1.135-1.118-2.977-1.118-4.113,0L0.895,5.985c-1.135,1.118-1.135,2.933,0,4.051c1.136,1.117,2.977,1.117,4.112,0l1.56-1.535
		C5.943,8.591,5.304,8.529,4.71,8.302z"/>
</g>
</svg>
