<?xml version="1.0" encoding="utf-8"?>
<!-- Generator: Adobe Illustrator 16.0.0, SVG Export Plug-In . SVG Version: 6.00 Build 0)  -->
<!DOCTYPE svg PUBLIC "-//W3C//DTD SVG 1.0//EN" "http://www.w3.org/TR/2001/REC-SVG-20010904/DTD/svg10.dtd">
<svg version="1.0" id="Capa_1" xmlns="http://www.w3.org/2000/svg" xmlns:xlink="http://www.w3.org/1999/xlink" x="0px" y="0px"
	 width="11px" height="11px" viewBox="0 0 11 11" enable-background="new 0 0 11 11" xml:space="preserve">
<g>
	<g>
		<path fill="#364A5E" d="M8.611,11.063H6.824h-0.48H6.238V7.76h0.785c0.199,0,0.316-0.313,0.199-0.537L5.697,4.316
			c-0.098-0.187-0.299-0.187-0.396,0L3.776,7.223C3.658,7.447,3.773,7.76,3.974,7.76h0.785v3.303H4.655H4.173H2.102
			C0.914,10.973-0.03,9.443-0.03,7.787c0-1.143,0.45-2.139,1.116-2.677C1.025,4.882,0.993,4.64,0.993,4.384
			c0-1.167,0.686-2.11,1.533-2.11c0.183,0,0.359,0.043,0.524,0.127c0.49-1.432,1.548-2.425,2.777-2.425
			C7.42-0.022,8.73,1.656,8.879,3.796c1.223,0.29,2.152,1.85,2.152,3.614C11.031,9.297,9.963,10.932,8.611,11.063z"/>
	</g>
</g>
</svg>
